<svg width="74" height="70" viewBox="0 0 74 70" fill="none" xmlns="http://www.w3.org/2000/svg">
<path d="M39.5949 0.371223C37.7533 0.642883 35.7505 1.62504 34.2312 2.96244L32.919 4.13266L32.965 35.2063L33.0341 66.2591L34.1851 67.0532C37.0166 68.9966 39.9402 69.9787 42.9328 69.9996C46.1787 70.0205 48.7339 69.1846 51.7496 67.1158L53.4301 65.9665L55.4559 66.1128C58.8398 66.3218 62.0166 65.4859 64.687 63.7097C65.6769 63.0619 67.6796 60.9513 68.2091 59.99C69.4292 57.8167 69.8896 53.7418 69.1759 51.3387C68.7385 49.8759 68.7385 49.9386 69.3831 49.7923C69.6824 49.7296 70.4881 49.1236 71.1327 48.4758C75.1382 44.4009 74.7699 39.323 70.1658 35.2063L68.5774 33.7853L69.3371 31.9673C70.0277 30.2538 70.0737 29.9403 70.0737 27.4118C70.0967 24.8624 70.0507 24.6325 69.4752 23.6503C68.3242 21.686 66.4365 20.3068 63.6971 19.471C62.7303 19.1784 61.7864 18.9485 61.5562 18.9485C61.2109 18.9485 61.1879 18.7814 61.303 17.6111C61.6253 14.5811 60.5664 11.8436 58.1953 9.62854C56.6299 8.12397 54.6271 7.10002 52.8546 6.87016C51.7956 6.72388 51.7496 6.70298 51.2431 5.53275C50.4835 3.81921 49.4706 2.79527 47.629 1.83401C45.0507 0.475708 42.2422 -0.0258179 39.5949 0.371223ZM44.8205 1.29069C45.5571 1.47876 46.3859 1.79221 46.6621 1.98029L47.1455 2.33553L46.0175 5.57455C44.8205 9.02253 44.6593 9.69123 44.9816 9.79572C45.0967 9.83751 45.7413 8.35383 46.3859 6.5358C47.1686 4.29984 47.629 3.29679 47.7671 3.48486C47.9743 3.77742 49.5396 7.55975 51.2431 11.8436C51.8186 13.2646 52.3251 14.4975 52.3942 14.5393C52.4402 14.602 52.6013 14.5393 52.7164 14.4348C52.9466 14.2259 52.7395 13.6407 49.8619 6.72388C49.1483 4.98943 48.5728 3.44307 48.5728 3.27589C48.5958 3.08782 48.8721 3.255 49.2864 3.69383C50.2302 4.69688 50.7137 5.53275 50.8518 6.49401C50.9899 7.30899 51.0129 7.32989 51.9107 7.35078C53.315 7.41347 54.6271 7.81051 55.8702 8.5628C57.2514 9.41957 57.2514 9.62854 55.8472 12.3869C55.2026 13.6825 54.8803 14.5184 55.0185 14.6438C55.1336 14.7483 55.2947 14.811 55.3407 14.7483C55.5019 14.6229 57.2284 11.1749 57.4126 10.6316C57.6428 10.0047 57.85 10.0465 58.5636 10.8197C59.9678 12.3451 60.6354 14.2259 60.5894 16.6499C60.5664 17.632 60.5203 18.6142 60.4973 18.8232C60.4282 19.1575 60.7505 19.3038 62.5001 19.7635C64.8942 20.4113 66.3905 21.1218 67.5645 22.2503C68.3472 23.0025 69.5212 24.9042 69.5212 25.4684C69.5212 25.6147 69.1529 26.0117 68.6925 26.346C68.2321 26.6804 66.7588 27.8506 65.4236 28.9373L63.0295 30.9016L62.5001 30.1075C62.2008 29.6478 61.5792 28.6865 61.0958 27.9342C60.6354 27.1819 59.8067 25.9072 59.2772 25.1131C58.7478 24.2981 57.6658 22.6473 56.8831 21.3935C56.0774 20.1606 55.2947 19.1575 55.1105 19.1575C54.6732 19.1575 54.6962 19.4292 55.2026 20.0143C55.4328 20.2859 55.9623 21.08 56.3997 21.7696C56.814 22.4592 57.6428 23.7757 58.2413 24.6952C61.0728 29.0208 62.385 31.0896 62.385 31.2568C62.385 31.3404 62.1778 31.5912 61.9245 31.8001C61.6023 32.0509 61.5332 32.2599 61.6943 32.4061C61.8325 32.5315 62.0627 32.4897 62.3619 32.239C62.7993 31.8837 62.8223 31.8837 63.1676 32.3643C63.3518 32.6151 64.9862 35.6452 66.7818 39.0722C69.0839 43.4606 70.0047 45.404 69.8435 45.5921C69.7284 45.7383 69.0378 46.6578 68.3012 47.64L66.943 49.3953L65.3315 49.5416C63.559 49.6879 63.2137 49.7923 63.4439 50.1267C63.536 50.2521 64.0654 50.273 64.8251 50.1894C65.6308 50.1058 66.0682 50.1267 66.0682 50.273C66.0682 50.3775 65.2164 51.5686 64.2036 52.906C62.9835 54.4941 62.408 55.4136 62.5461 55.539C62.7763 55.7479 63.6511 54.724 66.2293 51.3596C67.1041 50.2312 67.7717 49.6879 68.0019 49.8968C68.3242 50.1894 69.0608 53.4075 69.0608 54.4523C69.0608 56.8346 67.6796 60.1154 65.861 61.9543C64.8481 62.9783 64.8251 62.9783 63.536 60.8886C63.0295 60.0527 62.7072 59.7393 62.5461 59.8855C62.385 60.0318 62.6152 60.5751 63.2597 61.5991C63.7892 62.4141 64.2266 63.1663 64.2266 63.2499C64.2266 63.438 62.0627 64.5246 60.6584 65.0053C59.7376 65.3396 58.8859 65.4232 56.2616 65.4232L53.0387 65.4441L51.7726 66.3636C48.1814 68.9548 43.9918 70.0623 40.6078 69.2891C40.0553 69.1637 39.5949 68.9757 39.5949 68.8712C39.5949 68.7667 40.4466 67.6801 41.5056 66.4471C44.4291 62.9574 44.6593 62.6648 44.6593 62.4141C44.6593 61.8289 43.9227 62.5394 41.5516 65.4023C40.1704 67.0741 38.9503 68.5159 38.8582 68.5786C38.605 68.8085 36.303 67.7637 34.8987 66.8024L33.6096 65.9247V58.5272V51.1506L34.6455 51.0462C35.221 50.9835 36.1649 50.879 36.7864 50.7954C38.7201 50.6073 39.3647 50.461 39.3647 50.2521C39.3647 50.0431 36.9936 50.1267 34.5995 50.4192L33.6096 50.5446V43.7949V37.0243L35.7505 35.7914C36.9015 35.1018 38.6971 34.057 39.71 33.4719C41.6897 32.2808 42.4494 31.9046 42.7487 31.9046C42.8638 31.9046 43.14 32.4061 43.3702 32.9912C43.6004 33.5973 44.268 35.2063 44.8435 36.5646L45.8794 39.0304L45.5341 40.0126C45.3269 40.5559 44.9126 41.6008 44.5903 42.3531C43.9227 43.983 44.1989 43.8994 38.3057 44.1293C34.5765 44.2756 33.5175 44.4218 33.9089 44.7771C34.1161 44.9652 44.245 44.4845 44.4752 44.2756C44.5673 44.192 44.7514 43.6487 44.8895 43.0844C45.2579 41.6635 45.9945 40.3261 46.4779 40.2007C46.8002 40.138 46.8693 39.9499 46.7772 39.4693C46.6621 38.717 47.698 36.0631 48.2735 35.6243C48.4807 35.478 49.1713 34.7884 49.7929 34.0988C52.4402 31.215 52.9466 30.7762 53.2689 31.0896C53.6142 31.424 54.5581 33.4928 54.5581 33.8898C54.5581 34.1197 51.0129 38.4035 49.908 39.5111C49.4476 39.9708 49.4015 40.1798 49.7008 40.347C49.8159 40.4305 51.1511 39.0513 52.6704 37.296L55.4328 34.1197L54.9954 33.1166C54.7652 32.5524 54.5581 32.0091 54.5581 31.9255C54.5581 31.821 55.1105 32.0091 55.8012 32.3434C56.8371 32.845 57.0673 32.9077 57.1824 32.636C57.2745 32.4061 56.9522 32.1554 56.1004 31.7792C54.0056 30.818 53.7524 30.5672 52.9466 28.6656C52.5093 27.6417 52.0489 26.8894 51.8877 26.8894C51.4503 26.8894 51.4733 27.1192 52.1409 28.4775C52.4632 29.1253 52.7164 29.7731 52.7164 29.8985C52.7164 30.0239 51.4273 31.4867 49.8619 33.1166C47.721 35.3735 46.9384 36.3348 46.7312 37.0243C46.57 37.5468 46.3628 37.9647 46.2708 37.9647C46.0866 37.9647 45.3039 36.2303 44.0608 33.033L43.4163 31.3404L45.9715 28.8537C47.629 27.2446 48.4807 26.3042 48.3196 26.158C48.1814 26.0326 47.0535 26.9312 45.1658 28.6656C42.5185 31.1105 41.8739 31.5912 38.4669 33.5346C36.3951 34.7257 34.6455 35.6452 34.5765 35.5825C34.5304 35.5198 34.6225 35.2481 34.8067 34.9973C34.9908 34.7257 35.4973 33.9525 35.9116 33.2629C36.326 32.5733 37.3389 30.9643 38.1446 29.6686C38.9273 28.373 39.5949 27.2237 39.5949 27.0983C39.5949 26.5341 38.9733 27.1192 38.1906 28.373C37.0396 30.2747 35.129 33.2838 34.3232 34.5167L33.6326 35.5616L33.6096 30.5881C33.6096 27.8715 33.6326 25.6355 33.6787 25.6147C33.7017 25.6147 34.7606 25.4893 36.0037 25.3639C37.5231 25.1967 38.3288 25.0086 38.3978 24.8415C38.4669 24.6116 38.1446 24.5698 36.6943 24.6952L34.8757 24.8415L35.9577 24.1519C36.5562 23.7548 38.2597 22.7518 39.71 21.895C41.7127 20.7248 42.4034 20.2233 42.4954 19.8053C42.5875 19.5128 42.8177 18.5515 43.0479 17.6947C43.7846 14.999 43.8076 14.7692 43.4623 14.7692C43.2321 14.7692 42.9328 15.5424 42.4954 17.3395L41.8509 19.9307L40.4236 20.7666C36.8094 22.9608 33.9779 24.5907 33.7938 24.5907C33.7017 24.5907 33.6096 21.0591 33.6096 16.7544C33.6096 12.3869 33.7017 8.91805 33.8168 8.91805C33.9319 8.91805 34.4153 9.06433 34.8987 9.2524C36.2109 9.75392 41.2523 11.4257 41.4825 11.4257C41.5746 11.4257 41.6667 11.3003 41.6667 11.154C41.6667 11.0077 39.8941 10.3181 37.6382 9.56585L33.6096 8.20755V6.26414V4.29984L34.6685 3.35948C37.3849 0.977234 40.815 0.266739 44.8205 1.29069ZM69.6363 28.0178C69.4522 29.5851 69.0839 30.9434 68.3932 32.4897C68.14 33.0957 67.9098 33.7644 67.9098 33.9525C67.9098 34.1615 68.3702 34.6212 68.8997 34.9765C70.0967 35.7287 71.8463 37.7557 72.5599 39.1558C72.9743 39.9708 73.0664 40.5559 73.0664 42.3531C73.0894 44.3591 73.0203 44.6517 72.4218 45.7383C71.524 47.3474 69.6363 49.249 68.9457 49.249C67.9789 49.249 68.071 48.852 69.3831 47.2011C70.0967 46.3235 70.6723 45.4876 70.6723 45.3622C70.6723 45.1323 68.2781 40.3887 67.4264 38.9469C67.1732 38.508 66.4135 37.0452 65.7229 35.6869C65.0553 34.3287 64.2266 32.8241 63.9043 32.3643L63.3288 31.5076L64.1805 30.7971C67.3804 28.1014 69.222 26.6804 69.4982 26.6804C69.7514 26.6804 69.7745 26.9521 69.6363 28.0178Z" fill="#A3D7E5"/>
<path d="M42.8177 11.0494C42.1731 11.6973 42.1962 12.8884 42.8868 13.4735C44.0378 14.4556 46.0405 13.6825 46.0405 12.2615C46.0405 10.8196 43.8766 10.0046 42.8177 11.0494Z" fill="#A3D7E5"/>
<path d="M46.6391 13.4944C46.5009 13.6824 47.5138 14.3093 49.7928 15.5005C50.5525 15.8975 50.9899 16.002 51.151 15.8557C51.3122 15.7094 50.7136 15.2915 49.1943 14.4765C46.8462 13.2227 46.8232 13.2018 46.6391 13.4944Z" fill="#A3D7E5"/>
<path d="M53.2459 15.1453C52.5553 15.2497 51.7956 16.1483 51.7956 16.9006C51.7956 18.0708 53.3149 18.8649 54.6731 18.4052C55.2486 18.1962 55.7551 17.1096 55.5939 16.4409C55.3637 15.4796 54.4429 14.9781 53.2459 15.1453Z" fill="#A3D7E5"/>
<path d="M51.9338 20.4323C51.2892 21.8115 51.1741 22.3757 51.6115 22.2503C51.9338 22.1458 53.1999 19.4501 52.9927 19.283C52.7165 19.0113 52.5093 19.2203 51.9338 20.4323Z" fill="#A3D7E5"/>
<path d="M49.5626 23.107C48.6648 23.6085 48.4116 24.528 48.895 25.3848C49.2634 26.0535 49.6777 26.2625 50.5295 26.2625C51.3812 26.2625 51.7956 26.0535 52.1639 25.3848C53.0847 23.7757 51.2661 22.1667 49.5626 23.107Z" fill="#A3D7E5"/>
<path d="M40.1704 23.3786C38.7201 24.1309 38.7892 25.6564 40.3085 26.3877C41.2293 26.8057 42.2192 26.4713 42.7257 25.5937C43.5774 24.11 41.7588 22.5427 40.1704 23.3786Z" fill="#A3D7E5"/>
<path d="M45.1888 24.1102C44.1068 24.1729 43.7385 24.2773 43.7385 24.4863C43.7385 24.8416 44.4752 24.8834 46.4549 24.6744C47.2376 24.5699 47.652 24.4445 47.652 24.2565C47.652 24.0893 47.4448 23.9848 47.1455 24.0057C46.8463 24.0266 45.9715 24.0684 45.1888 24.1102Z" fill="#A3D7E5"/>
<path d="M58.1262 32.8449C57.3665 33.5136 57.3435 34.6003 58.0801 35.1854C59.047 36.0212 60.5433 35.8332 61.1188 34.8092C62.1087 33.0957 59.6225 31.4657 58.1262 32.8449Z" fill="#A3D7E5"/>
<path d="M58.3794 37.7765C58.1722 38.487 57.7809 39.8453 57.5507 40.8066L57.0903 42.5828L58.2873 45.2785C59.024 46.9712 59.5995 47.9951 59.7836 47.9951C60.152 47.9951 60.0599 47.5981 59.3463 46.1144C59.093 45.592 58.6556 44.568 58.3334 43.8366L57.7809 42.5201L58.3564 40.2842C58.6556 39.0722 59.024 37.7765 59.1391 37.4004C59.3463 36.7735 59.2772 36.5018 58.9319 36.5018C58.8398 36.5018 58.6096 37.0661 58.3794 37.7765Z" fill="#A3D7E5"/>
<path d="M47.2836 40.8903C46.6851 41.0993 46.0405 41.8934 46.0405 42.3949C46.0405 43.0218 46.524 43.7532 47.1225 44.0039C47.9512 44.3592 48.4807 44.2756 49.1713 43.7323C50.7597 42.4994 49.1943 40.1589 47.2836 40.8903Z" fill="#A3D7E5"/>
<path d="M50.0691 44.0457C49.977 44.171 50 44.3382 50.1382 44.4218C50.9899 44.9024 55.3177 47.4101 56.5378 48.1414C58.1492 49.0818 58.4715 49.2072 58.4715 48.7684C58.4485 48.643 56.9982 47.6608 55.2026 46.6369C50.3453 43.8158 50.2533 43.7531 50.0691 44.0457Z" fill="#A3D7E5"/>
<path d="M45.396 45.1113C45.1428 45.4874 44.6593 46.1561 44.314 46.5741C43.9227 47.0547 43.7385 47.4727 43.8306 47.7025C43.9457 47.9742 44.245 47.6816 45.1428 46.5114C46.547 44.6934 46.6621 44.4426 46.2017 44.4426C46.0175 44.4426 45.6492 44.7561 45.396 45.1113Z" fill="#A3D7E5"/>
<path d="M40.7459 48.622C39.6869 49.5833 40.5387 51.5476 41.989 51.5476C43.163 51.5476 43.9687 50.858 43.9687 49.855C43.9687 48.7683 43.3472 48.2041 42.1271 48.2041C41.5055 48.2041 41.0451 48.3504 40.7459 48.622Z" fill="#A3D7E5"/>
<path d="M59.9448 48.8311C59.2772 49.0609 58.7017 49.855 58.7017 50.461C58.7017 51.067 59.8757 52.1746 60.5433 52.1746C61.1418 52.1746 61.9475 51.7984 62.3158 51.3596C63.3518 50.1476 61.5332 48.2251 59.9448 48.8311Z" fill="#A3D7E5"/>
<path d="M57.2975 52.2372C56.9752 52.488 54.8343 54.0135 52.5553 55.6016C49.8389 57.5032 48.4347 58.6108 48.5037 58.7988C48.6418 59.1332 48.2965 59.3631 52.7164 56.2494C57.7809 52.697 58.4945 52.1536 58.3564 51.9447C58.1492 51.673 57.965 51.7148 57.2975 52.2372Z" fill="#A3D7E5"/>
<path d="M42.8177 52.488C42.8177 53.0104 44.6593 58.0256 44.8665 58.0256C45.3039 58.0256 45.2348 57.6286 44.291 55.0374C43.4162 52.5715 42.8177 51.5476 42.8177 52.488Z" fill="#A3D7E5"/>
<path d="M59.9908 56.3748C58.8859 57.1689 59.3233 59.0914 60.6815 59.3422C61.4872 59.4675 62.5691 59.1332 62.8454 58.6526C63.8813 56.9181 61.6943 55.1628 59.9908 56.3748Z" fill="#A3D7E5"/>
<path d="M54.3278 58.5691C52.3711 58.9662 50.3914 59.3632 49.954 59.4468C49.4936 59.5513 49.1252 59.7602 49.0792 59.9483C49.0101 60.2618 49.1252 60.2618 50.2302 60.011C50.8978 59.8647 53.0387 59.4259 54.9724 59.0497C57.3895 58.59 58.4715 58.2975 58.4715 58.1094C58.4715 57.7332 58.5405 57.7332 54.3278 58.5691Z" fill="#A3D7E5"/>
<path d="M44.9356 59.0707C44.1759 59.7185 44.245 60.9932 45.0277 61.5574C45.8564 62.1425 46.8463 62.1216 47.5369 61.4738C48.7109 60.4289 47.9282 58.6527 46.2938 58.6527C45.7413 58.6527 45.2579 58.799 44.9356 59.0707Z" fill="#A3D7E5"/>
<path d="M13.0525 20.7666C12.9604 20.8292 12.8914 23.5249 12.8914 26.7222V32.5315H13.582H14.2726L14.3186 27.2446L14.3877 21.9786L14.802 23.9638C15.2624 26.1371 15.838 28.8119 16.0221 29.5432C16.0912 29.9194 16.2753 30.0239 16.8048 30.0239C17.5875 30.0239 17.5415 30.1701 18.2781 26.2624C19.2219 21.3726 19.291 21.4353 19.314 27.2446L19.337 32.5315H20.0276H20.7183L20.6722 26.6177L20.6031 20.7248H19.5672H18.5313L18.0249 22.9189C17.7486 24.1309 17.4033 25.8863 17.2422 26.8475C17.081 27.7879 16.8739 28.4984 16.7818 28.4148C16.6667 28.3103 16.2523 26.5132 15.838 24.4235L15.1013 20.6203H14.1575C13.628 20.6203 13.1216 20.683 13.0525 20.7666Z" fill="#A3D7E5"/>
<path d="M22.3987 23.6922C22.4678 23.9012 23.0433 25.9909 23.6879 28.3523C24.6547 31.9047 24.8159 32.7824 24.6317 33.4511C24.3325 34.6422 23.8951 34.9766 23.0203 34.684C22.4218 34.475 22.2836 34.4959 22.0765 34.8512C21.8693 35.2064 21.9614 35.3109 22.698 35.5826C23.3886 35.8542 23.6649 35.8542 24.2174 35.6453C25.1382 35.3109 25.2763 34.9975 26.1511 31.4032C26.5884 29.6688 27.187 27.2238 27.5092 25.97C27.8315 24.7162 28.0848 23.6087 28.0848 23.5042C28.0848 23.3997 27.8085 23.337 27.4632 23.3788C26.8647 23.4415 26.8186 23.5251 26.1511 26.5133C25.4604 29.4807 25.1151 30.421 25.0691 29.3762C25.0691 29.1045 24.7238 27.6418 24.3094 26.1581C23.5958 23.5251 23.5498 23.4415 22.9282 23.3788C22.3987 23.3161 22.3067 23.3788 22.3987 23.6922Z" fill="#A3D7E5"/>
<path d="M19.0377 35.3944C18.9456 35.4571 18.8766 35.7915 18.8766 36.1258C18.8766 36.6273 18.9687 36.7109 19.5672 36.7109C20.2118 36.7109 20.2578 36.6482 20.2578 35.9795C20.2578 35.3526 20.1887 35.2482 19.7283 35.2482C19.4291 35.2482 19.1068 35.3108 19.0377 35.3944Z" fill="#A3D7E5"/>
<path d="M0 41.8305V47.7861H1.4733C2.30203 47.7861 3.22284 47.7025 3.54512 47.5772C4.51197 47.2428 5.06446 46.198 5.06446 44.6934C5.06446 43.2515 4.65009 42.2903 3.86741 41.9141C3.407 41.6842 3.407 41.6633 3.77532 41.4753C4.78822 40.9529 5.15654 38.4661 4.41989 37.1287C3.95949 36.272 3.01566 35.8958 1.22007 35.8958L0 35.8749V41.8305ZM3.13076 37.2123C3.49908 37.4631 3.56814 37.7765 3.56814 38.9677C3.56814 40.6603 3.13076 41.3081 2.02578 41.3081H1.38122V39.1139V36.9198H2.02578C2.39411 36.9198 2.87753 37.0451 3.13076 37.2123ZM3.38398 42.6873C3.84439 43.3351 3.91345 45.5502 3.47606 46.2607C3.26888 46.6368 2.99264 46.7413 2.30203 46.7413H1.38122V44.4426V42.144H2.18693C2.78545 42.144 3.08472 42.2694 3.38398 42.6873Z" fill="#A3D7E5"/>
<path d="M9.5304 38.5915C9.27718 38.6751 8.90885 39.0512 8.74771 39.4274C8.42543 40.1379 8.14918 40.0543 8.01106 39.2184C7.96502 38.9259 7.78086 38.696 7.5967 38.696C7.29743 38.696 7.25139 39.3647 7.18233 43.2306L7.13629 47.7861H7.8269H8.51751V44.4844C8.51751 40.8693 8.81677 39.8035 9.85268 39.6781C10.175 39.6364 10.3591 39.4692 10.3591 39.1975C10.3591 38.9885 10.3591 38.7378 10.3821 38.6542C10.4052 38.4243 10.0599 38.3825 9.5304 38.5915Z" fill="#A3D7E5"/>
<path d="M13.3518 38.5289C13.1676 38.5916 12.7302 38.8423 12.3849 39.0513C11.8555 39.3857 11.7864 39.5319 11.9936 39.8663C12.2238 40.2633 12.2238 40.2633 12.8223 39.8454C13.582 39.3021 14.6409 39.3021 14.9632 39.8245C15.1704 40.2006 15.3085 42.7709 15.1243 42.7709C15.0783 42.7709 14.71 42.6247 14.3416 42.4575C13.8352 42.2276 13.4669 42.1858 13.0525 42.3321C12.0396 42.6874 11.7404 43.3352 11.7404 45.2368C11.7404 46.804 11.7864 47.013 12.3159 47.4727C13.0755 48.1832 14.2956 48.1832 14.9172 47.4727C15.4696 46.8458 15.5617 46.8249 15.7229 47.3683C15.7919 47.5981 15.9991 47.7862 16.2063 47.7862C16.5286 47.7862 16.5746 47.3265 16.5746 44.1292C16.5746 40.3678 16.4135 39.4483 15.5847 38.8423C15.1704 38.5289 13.8582 38.3408 13.3518 38.5289ZM14.733 43.3979C15.1013 43.7322 15.1934 44.0875 15.1934 45.0696C15.1934 46.0518 15.1013 46.407 14.733 46.7414C14.1575 47.2638 13.9273 47.2638 13.3288 46.7205C12.9144 46.3443 12.8453 46.0936 12.9374 44.9651C13.0755 43.0844 13.7431 42.4993 14.733 43.3979Z" fill="#A3D7E5"/>
<path d="M25.1841 38.6333C24.9079 38.7378 24.5626 39.0721 24.4245 39.3438C24.1022 40.0125 23.7569 39.9707 23.6648 39.2602C23.6188 38.9259 23.4576 38.696 23.2504 38.696C22.9512 38.696 22.9051 39.3647 22.8361 43.2306L22.79 47.7861H23.4576H24.1252L24.2173 44.171C24.2633 41.1409 24.3554 40.4722 24.7007 39.9916C24.9539 39.6364 25.2992 39.4274 25.6446 39.4274C26.5193 39.4274 26.7035 40.3259 26.7035 44.2546V47.7861H27.3941H28.0847L28.0617 45.0068C28.0617 40.7857 27.8315 39.4692 27.0718 38.8841C26.4042 38.3407 25.9438 38.2781 25.1841 38.6333Z" fill="#A3D7E5"/>
<path d="M19.1068 43.1888V47.7861H19.6823H20.2578V43.1888V38.5915H19.6823H19.1068V43.1888Z" fill="#A3D7E5"/>
</svg>
